<?xml version="1.0" encoding="UTF-8" standalone="no"?>
<!DOCTYPE svg PUBLIC "-//W3C//DTD SVG 1.1//EN" "http://www.w3.org/Graphics/SVG/1.1/DTD/svg11.dtd">
<svg version="1.1" xmlns="http://www.w3.org/2000/svg" xmlns:xlink="http://www.w3.org/1999/xlink" preserveAspectRatio="xMidYMid meet" viewBox="0 0 640 640" width="640" height="640"><defs><path d="M377.64 733.21L393.62 733.42L406.61 444.69L393.62 448.68L393.62 448.68L377.64 733.21Z" id="b1GAbTUbgY"></path><path d="M334.68 592.84C334.68 592.84 334.68 592.84 334.68 592.84C334.68 618.62 334.68 632.94 334.68 635.8C334.68 635.8 334.68 635.8 334.68 635.8C215.98 635.8 150.04 635.8 136.86 635.8C136.86 635.8 136.86 635.8 136.86 635.8C136.86 610.03 136.86 595.71 136.86 592.84C136.86 592.84 136.86 592.84 136.86 592.84C255.55 592.84 321.49 592.84 334.68 592.84Z" id="ahwVrOtTt"></path><path d="M347.66 630.8L347.66 657.77C225.06 657.77 156.94 657.77 143.32 657.77C136.09 652.56 128.94 647.2 121.88 641.69L121.88 630.8L347.66 630.8Z" id="b110Gwfr8R"></path><path d="M386.41 577.1C384.14 584.46 381.41 591.72 380.88 599.38C380.18 609.49 382.88 621.25 375.89 628.59C374.09 630.49 371.74 631.91 370.13 633.93C369.89 634.25 369.66 634.59 369.46 634.93C368.02 637.31 367.85 640.21 367.83 642.93C367.84 648.72 368.22 654.51 368.96 660.26C371.32 680.04 376 699.86 369.85 718.54C368.74 721.78 367.44 724.95 365.97 728.04C362.97 734.63 359.7 741.14 358.72 748.28C358.01 753.58 358.23 759.03 358.19 764.42C353.45 762.91 349.67 761.65 348.72 761.34C320.18 751.9 297.92 742.46 292.28 740.36C292.33 740.09 292.38 739.81 292.41 739.54C293.84 730.65 291.89 721.55 289.51 712.88C284.51 694.51 277.44 676.32 273.25 657.81C271.57 650.59 270.46 643.24 269.95 635.83C269.83 634.17 269.76 632.51 269.75 630.84C269.7 628.66 269.75 626.48 269.84 624.28C270.05 619.9 270.24 614.69 266.73 612.02C264.8 610.58 262.25 610.33 260 609.45C255.67 607.76 252.7 603.84 249.26 600.7C245.94 597.48 241.23 596.09 236.69 597.01C214.23 602.15 197.72 621.21 176.82 630.84C176.01 631.22 175.2 631.58 174.38 631.92C171.68 632.91 169.11 634.22 166.72 635.83C165.04 637 163.83 638.71 163.28 640.68C162.75 642.8 163.21 645.01 163.47 647.19C163.89 650.73 163.74 654.32 163.02 657.81C162.75 659.17 162.39 660.5 161.95 661.81C161.15 664.18 160.08 666.49 159.07 668.8C151.07 663.43 144.89 658.91 143.31 657.81C136.08 652.6 128.93 647.24 121.87 641.73C119.3 639.66 117.87 638.51 117.58 638.28C99.11 623.81 81.8 607.91 65.81 590.73C67.94 584.74 71.02 579.16 72.49 573.02C73.33 569.49 73.64 565.83 74.8 562.4C76.14 558.85 78 555.51 80.32 552.51C88.81 540.66 99.19 530.28 111.03 521.78C123.41 512.9 137.71 505.79 148.85 495.72C153.37 491.76 157.26 487.14 160.4 482.02C160.59 481.71 160.77 481.38 160.93 481.02C161.8 479.21 162.41 477.29 162.72 475.31C163.52 470.83 163.4 465.92 163.8 461.62C177.37 463.97 191.21 464.39 204.89 462.86C220.83 461.07 236.42 456.65 252.35 454.93C253.55 454.79 254.76 454.68 255.97 454.58C261.07 454.17 266.19 454.08 271.31 454.14C275.6 454.14 279.89 454.33 284.17 454.47C288.89 454.63 326.64 455.91 331.36 456.07C336.58 456.25 341.92 456.45 346.79 458.35C352.56 460.62 357.19 465.14 360.89 470.1C361.36 470.74 361.83 471.38 362.27 472.04C365.32 476.49 367.77 481.32 369.55 486.42C369.73 486.94 369.91 487.42 370.08 487.99C370.53 489.38 370.92 490.77 371.27 492.19C371.54 493.3 371.78 494.41 372 495.53C373.1 501.06 373.75 506.72 375.49 512.06C375.61 512.45 375.74 512.84 375.88 513.22C377.97 519.08 381.43 524.32 384.05 529.95C385.94 534.02 387.38 538.28 388.35 542.67C390.3 551.47 390.35 560.59 388.47 569.4C387.91 571.99 387.18 574.55 386.41 577.1Z" id="a541WkK9My"></path><path d="M229.77 213.13C225.63 214.95 221.37 216.49 217.02 217.73C216.13 218.07 215.17 218.17 214.23 218.02C212.23 217.54 211.39 215.17 209.9 213.74C207.31 211.25 203.08 211.84 199.74 213.19C196.4 214.53 193.1 216.48 189.53 216.18C185.71 215.88 182.39 213.07 178.54 212.98C171.74 212.82 166.04 221.19 159.62 218.97C155.7 217.62 152.62 212.53 148.77 213.97C145.77 215.11 145.5 219.26 143.69 221.97C141.56 225.12 137.42 226.01 133.87 227.41C122.69 231.83 115.29 244.29 116.74 256.22C117.55 262.8 120.74 268.84 122.85 275.12C129.1 293.39 126.95 314 134.84 331.63C135.84 330.69 136.4 330.34 137.37 329.41C134.87 334.58 134.39 340.49 136.02 346C136.85 348.76 138.19 351.34 139.21 354.05C140.27 357.08 141.13 360.19 141.77 363.34C142.64 367.17 149.59 397.85 150.46 401.68C153.86 416.67 157.27 431.66 157.86 447C158.22 456.98 157.46 466.97 155.58 476.78C171.32 474.17 185.73 467.19 201.69 467.28C207.54 467.28 213.35 468.27 219.15 469.07C236.08 471.44 253.15 472.6 270.24 472.54C272.89 472.69 275.55 472.32 278.07 471.44C280.27 470.5 282.06 468.83 284.14 467.63C288.21 465.23 293.13 464.63 297.82 464.63C319.19 464.24 339.78 472.06 361.01 474.82C369.4 457.22 369.89 436.14 363.46 417.75C361.55 412.29 358.98 406.96 358.23 401.22C357.92 397.68 357.84 394.14 357.99 390.59C357.95 381.53 356.32 372.54 353.16 364.04C351.92 360.71 350.43 357.33 350.56 353.78C350.69 350.23 352.44 346.92 354.16 343.79C357.65 337.39 361.15 330.94 366.08 325.54C371.12 319.97 377.44 315.72 383.68 311.56C385.22 310.52 397.56 302.24 399.1 301.21C396.99 287.89 394.27 273.86 388.63 261.61C382.98 249.36 374.54 238.1 363.12 230.94C359.27 228.62 355.24 226.62 351.07 224.95C345.24 222.49 339.16 220.32 332.84 219.95C325.64 219.54 318.56 221.47 311.46 222.67C289.1 226.43 262.78 225.97 245.04 211.86C240.82 208.5 234.71 210.96 229.77 213.13Z" id="a6YqZ4LfFZ"></path><path d="M413.61 442.97L406.27 452.23L392.44 469.68L376.46 489.85L371.99 495.49L363.33 495.49L148.84 495.74L14.51 495.89C10.91 495.89 8.91 495.89 8.51 495.89C7.71 493.39 6.97 490.89 6.29 488.3C4.8 482.72 3.93 478.14 3.67 477.01C3.51 476.28 3.37 475.55 3.24 474.81C6.49 472.68 22.73 462.06 51.97 442.95L70.3 442.85L70.3 442.85L126.35 442.53L126.35 442.53L157.65 442.35L163.36 442.35L166.95 442.35L166.95 442.35L187.81 442.24L187.81 442.24L346.81 441.33L346.81 441.33L354.94 441.28L354.94 441.28L358.47 441.28L367.81 441.23L402.57 441.03L409.24 438.49L409.73 439.01L413.61 442.97Z" id="fDlMNYQN5"></path><path d="M410.61 437.97L409.78 438.97L404.32 445.4L393.09 458.65L369.55 486.42L160.93 481.09C66.55 478.7 14.11 477.36 3.63 477.1C3.47 476.37 3.33 475.64 3.2 474.9C0.81 462.08 -0.25 449.04 0.05 436C1.21 435.41 7.03 432.43 17.49 427.07L21.49 425.01L52.59 409.03L79.89 395.04L151.08 404.29L166.85 406.34L173.98 407.26L184.42 408.62L185.3 408.74L349.02 429.97L367.12 432.32L377.74 433.7L410.47 437.95L410.61 437.97Z" id="c7ITqBHGw"></path><path d="M376.64 485.93L376.47 489.85L375.47 512.02L370.09 633.91L368.96 660.26L365.96 728.04L364.27 766.32C360.61 765.18 358.58 764.54 358.18 764.42C355.02 763.41 351.86 762.38 348.71 761.34L363.33 495.58L363.64 490L370.07 488.01L376.64 485.93Z" id="lbP1Y9dP"></path><path d="M14.97 485.64L14.52 495.9C14.12 504.89 13.9 509.89 13.86 510.89C11.95 506.15 10.21 501.32 8.62 496.41C8.53 496.12 8.48 495.95 8.47 495.92C7.67 493.42 6.93 490.92 6.25 488.33C7.42 487.97 10.32 487.07 14.97 485.64Z" id="dcSdfldU2"></path><path d="M322.19 272.63C322.19 306.84 301.61 334.58 276.23 334.58C250.85 334.58 230.27 306.84 230.27 272.63C230.27 238.42 250.85 210.69 276.23 210.69C301.61 210.69 322.19 238.42 322.19 272.63Z" id="a7BX9BzrJ2"></path><path d="M322.19 272.63C322.19 306.84 301.61 334.58 276.23 334.58C250.85 334.58 230.27 306.84 230.27 272.63C230.27 238.42 250.85 210.69 276.23 210.69C301.61 210.69 322.19 238.42 322.19 272.63Z" id="eohCvVuus"></path><path d="M282.72 171.22C247.41 171.22 218.78 199.85 218.78 235.17C218.78 270.48 247.41 299.11 282.72 299.11C318.04 299.11 346.67 270.48 346.67 235.17C346.67 199.85 318.04 171.22 282.72 171.22Z" id="a79d0jC6pD"></path><path d="M272.39 138.38C262.28 140.84 253.54 146.3 245.03 151.65C241.21 154.06 237.28 156.57 234.92 160.1C230.66 166.45 232.31 174.52 229.92 181.56C228.68 185.18 226.4 188.43 224.48 191.8C219.17 201.03 216.39 211.17 213.67 221.21C213.11 223.29 212.95 226.1 215.21 226.9C216.52 227.17 217.88 227.02 219.09 226.46C226.25 224.1 235.36 223.42 240.67 228.22C245.99 233.03 245.54 241.55 251.86 245.21C259.11 249.43 270.41 244.33 276.99 249.31C279.81 251.45 280.83 254.88 283.13 257.46C288.51 263.45 298.85 263.16 307.45 261.95C312.39 261.25 318.44 260.78 321.44 264.25C322.88 265.89 323.29 268.14 324.96 269.61C327.95 272.29 333.44 270.93 336.37 268.19C339.29 265.44 340.69 261.72 343.13 258.63C347.87 252.64 356.22 249.37 361.11 243.45C365.21 238.45 366.45 232.2 367.57 226.16C367.98 223.93 371.32 206.03 371.73 203.79C373.42 194.72 374.96 184.81 369.85 176.82C368.04 173.94 365.43 171.46 363.86 168.49C362.81 166.49 362.22 164.38 361 162.49C359.56 160.52 357.83 158.78 355.88 157.32C354.89 156.5 347 149.97 346.02 149.15C342.64 146.2 339.04 143.53 335.24 141.16C321.16 132.96 300.08 135.12 283.99 136.62C280.09 136.93 276.21 137.52 272.39 138.38Z" id="aocm7kjLN"></path><path d="M66.29 308.92C64.06 310.9 61.72 312.77 59.3 314.51C53.42 318.91 48.96 322.71 47.81 323.62C43.9 326.7 40.37 330.23 37.28 334.14C31.94 341.3 29.41 350.21 24.42 357.61C20 364.18 13.78 369.36 9.29 375.88C7.32 378.62 5.86 381.69 4.98 384.94C4.31 388.09 4.02 391.3 4.09 394.52C4 399.8 3.92 405.13 5 410.3C6.07 415.46 8.44 420.54 12.5 423.92C16.27 427.07 21.13 428.52 25.9 429.72C28.35 430.33 31.01 430.9 33.35 429.93C35.06 429.07 36.55 427.81 37.69 426.27C38.9 424.87 48.63 413.68 49.84 412.29C57.98 402.89 66.43 393.3 77.59 387.81C81.09 386.1 84.77 384.81 88.28 383.15C103.15 375.99 113.66 361.32 117.73 345.34C118.73 341.43 119.37 337.44 120.02 333.46C120.2 332.36 121.6 323.62 121.78 322.53C121.91 321.98 121.91 321.41 121.78 320.86C121.5 320.24 121.06 319.72 120.5 319.34C112.03 312.5 104.1 305.02 96.78 296.96C95.04 295.04 93.42 292.41 91.41 290.81C88.89 288.81 89.08 288.96 86.05 290.81C81.4 293.75 77.14 297.29 73.38 301.33C71.02 303.84 68.83 306.56 66.29 308.92Z" id="ayASNgnR5"></path><path d="M156.56 374.06C156.14 373.11 155.04 372.67 154.09 373.09C153.13 373.5 152.7 374.61 153.11 375.56C153.13 375.61 153.16 375.65 153.18 375.7C153.11 375.73 152.78 375.89 152.18 376.19L181.98 437.25L187.36 434.62L157.57 373.52C157.03 373.81 156.69 373.99 156.56 374.06Z" id="aj2iIzt4y"></path><path d="M66.29 308.92C64.06 310.9 61.72 312.77 59.3 314.51C53.42 318.91 48.96 322.71 47.81 323.62C43.9 326.7 40.37 330.23 37.28 334.14C31.94 341.3 29.41 350.21 24.42 357.61C20 364.18 13.78 369.36 9.29 375.88C7.32 378.62 5.86 381.69 4.98 384.94C4.31 388.09 4.02 391.3 4.09 394.52C4 399.8 3.92 405.13 5 410.3C6.07 415.46 8.44 420.54 12.5 423.92C16.27 427.07 21.13 428.52 25.9 429.72C28.35 430.33 31.01 430.9 33.35 429.93C35.06 429.07 36.55 427.81 37.69 426.27C38.9 424.87 48.63 413.68 49.84 412.29C57.98 402.89 66.43 393.3 77.59 387.81C81.09 386.1 84.77 384.81 88.28 383.15C103.15 375.99 113.66 361.32 117.73 345.34C118.73 341.43 119.37 337.44 120.02 333.46C120.2 332.36 121.6 323.62 121.78 322.53C121.91 321.98 121.91 321.41 121.78 320.86C121.5 320.24 121.06 319.72 120.5 319.34C112.03 312.5 104.1 305.02 96.78 296.96C95.04 295.04 93.42 292.41 91.41 290.81C88.89 288.81 89.08 288.96 86.05 290.81C81.4 293.75 77.14 297.29 73.38 301.33C71.02 303.84 68.83 306.56 66.29 308.92Z" id="deKMBj92r"></path><path d="M414.81 432.62C413.68 435.13 411.91 437.61 409.26 438.44C407.66 438.81 406 438.87 404.37 438.62C384.77 436.9 365.02 438.47 345.94 443.26C351.03 433.07 348.1 420.85 349.51 409.54C349.9 406.45 350.61 403.41 350.88 400.32C351.88 389.33 347.18 378.66 345.02 367.81C343.14 358.41 343.14 348.74 345.02 339.35C345.38 336.93 346.22 334.61 347.47 332.51C348.93 330.46 350.85 328.79 353.08 327.62C361.17 323.02 370.71 322.49 379.81 323.1C385.93 323.51 398.21 322.93 403.31 326.69C408.9 330.82 410.67 344.68 412.18 351.08C414.44 360.9 415.97 370.88 416.77 380.92C417.75 391.87 417.96 402.87 417.81 413.86C417.71 420.24 417.46 426.8 414.81 432.62Z" id="a6Nd8pnpLQ"></path><path d="M95.89 459.96L257.75 453.97L150.84 435.98L59.93 435.98L59.93 435.98L95.89 459.96Z" id="b2gWnYoLJm"></path><path d="M90.85 262.35C83.17 269.96 74.45 276.44 65.77 282.88C72.1 284.65 77.04 289.62 78.76 295.97C79.14 297.44 79.33 298.97 79.76 300.41C80.76 303.81 82.95 306.75 85.31 309.4C95.44 320.82 109.62 329.27 115.6 343.37C115.79 344.05 116.21 344.65 116.79 345.07C117.28 345.28 117.82 345.34 118.34 345.25C123.75 344.68 127.88 340.32 131.33 336.08C138.52 327.09 144.77 317.16 148.32 306.19C151.86 295.22 152.43 283.09 148.57 272.22C146.64 266.81 143.66 261.83 140.7 256.91C136.82 250.44 133.72 245.29 132.95 244C131.6 241.73 129.88 237.12 127.23 236C121.52 233.55 111.02 241.8 107.35 245.47C101.45 250.67 96.44 256.81 90.85 262.35Z" id="ac2oBKzKU"></path><path d="M410.13 330.02C391.35 323.46 370.56 326.34 354.28 337.76C349.43 341.23 344.99 345.59 342.8 351.12C340.6 351.54 338.35 350.66 337.01 348.85C335.74 347.06 334.99 344.94 334.88 342.74C334.09 335.07 336.99 327.54 339.87 320.37C341.21 317.01 342.59 313.58 344.97 310.86C347.35 308.13 350.5 306.33 353.66 304.63C363.73 299.06 374.28 294.4 385.18 290.71C389.78 289.22 394.59 289.25 397.17 293.54C400.16 298.67 399.29 304.58 401.63 310.04C403.33 314.03 409.28 328.02 410.13 330.02Z" id="b58mCodADh"></path><path d="M66.32 375.32C68.63 376.93 71.1 378.31 73.67 379.44C74.66 379.92 82.54 383.71 83.52 384.18C86.58 385.77 89.77 387.07 93.07 388.06C97.28 389.19 101.71 389.3 105.94 390.35C111.29 391.66 116.17 394.41 121.44 396C126.71 397.59 132.87 397.85 137.27 394.54C140.01 392.47 142.09 389.06 145.5 388.55C147.7 388.26 149.81 389.32 151.77 390.35C154.34 391.69 174.85 402.48 177.41 403.82C180.87 405.64 184.52 407.66 186.33 411.13C188.14 414.59 186.92 419.86 183.11 420.76C181.79 420.91 180.45 420.99 179.12 420.99C177.8 421.15 176.36 421.93 176.18 423.26C176.17 424.08 176.39 424.89 176.81 425.6C177.96 428.24 178.3 431.4 176.96 433.96C175.62 436.51 172.33 438.1 169.71 436.95C170.16 440.82 165.95 443.53 162.2 444.56C152.75 447.14 142.73 445.56 133.07 443.92C129.27 443.28 125.42 442.62 121.96 440.92C120.3 440.11 118.76 439.07 117.08 438.32C112.48 436.27 107.24 436.54 102.21 436.63C78.92 437.04 55.83 432.73 32.93 428.43C28.68 427.63 24.32 426.78 20.69 424.43C13.7 419.88 11.1 410.53 12.25 402.25C13.4 393.98 17.59 386.49 21.72 379.22C22.25 378.27 26.53 370.74 27.07 369.79C27.76 368.35 28.74 367.06 29.94 366C37.81 359.99 53.4 364.58 60.14 369.99C62.26 371.69 64.13 373.7 66.32 375.32Z" id="eZ8fTPhPo"></path><path d="M66.32 375.32C68.63 376.93 71.1 378.31 73.67 379.44C74.66 379.92 82.54 383.71 83.52 384.18C86.58 385.77 89.77 387.07 93.07 388.06C97.28 389.19 101.71 389.3 105.94 390.35C111.29 391.66 116.17 394.41 121.44 396C126.71 397.59 132.87 397.85 137.27 394.54C140.01 392.47 142.09 389.06 145.5 388.55C147.7 388.26 149.81 389.32 151.77 390.35C154.34 391.69 174.85 402.48 177.41 403.82C180.87 405.64 184.52 407.66 186.33 411.13C188.14 414.59 186.92 419.86 183.11 420.76C181.79 420.91 180.45 420.99 179.12 420.99C177.8 421.15 176.36 421.93 176.18 423.26C176.17 424.08 176.39 424.89 176.81 425.6C177.96 428.24 178.3 431.4 176.96 433.96C175.62 436.51 172.33 438.1 169.71 436.95C170.16 440.82 165.95 443.53 162.2 444.56C152.75 447.14 142.73 445.56 133.07 443.92C129.27 443.28 125.42 442.62 121.96 440.92C120.3 440.11 118.76 439.07 117.08 438.32C112.48 436.27 107.24 436.54 102.21 436.63C78.92 437.04 55.83 432.73 32.93 428.43C28.68 427.63 24.32 426.78 20.69 424.43C13.7 419.88 11.1 410.53 12.25 402.25C13.4 393.98 17.59 386.49 21.72 379.22C22.25 378.27 26.53 370.74 27.07 369.79C27.76 368.35 28.74 367.06 29.94 366C37.81 359.99 53.4 364.58 60.14 369.99C62.26 371.69 64.13 373.7 66.32 375.32Z" id="i2woEVu9r"></path><path d="M348.5 391.84C343.07 393.73 338.45 397.13 333.47 399.9C320.48 407.15 305.49 409.89 290.78 412.5C281.85 414.09 272.79 415.69 263.8 415.31C251.63 414.79 239.94 410.74 228.15 407.68C216.36 404.62 203.79 402.56 192.11 406C179.74 409.77 169.9 419.2 165.63 431.41C163.18 438.59 162.84 446.33 163.31 453.91C165.77 455.72 169.21 453.21 170.55 450.46C171.88 447.71 172.61 444.35 175.21 442.75C179.72 444.28 180.82 450.28 184.53 453.25C186.85 455.11 189.95 455.6 192.9 456.02C194.41 456.23 206.56 457.96 208.08 458.17C211.74 458.69 215.98 459.04 218.63 456.47C219.92 455.22 220.63 453.47 221.81 452.13C224.23 449.45 228.26 448.99 231.86 449.35C243.09 450.47 253.62 457.75 264.77 456.03C268.61 455.44 272.17 453.8 275.83 452.51C297.5 444.86 321.58 449.51 344.13 445.13C352.73 443.46 361.01 440.5 369.2 437.38C373.64 435.69 378.14 433.93 381.93 431.07C389.25 425.45 393.15 416.46 392.28 407.28C391.45 400.4 388.01 394.09 382.68 389.66C380.92 388.16 378.62 385.29 376.51 384.35C372.48 382.58 368.54 385.65 365.12 387.26C359.91 389.72 353.94 389.96 348.5 391.84Z" id="b3OhOkQuSz"></path><path d="M332.41 254.26C329.41 250.79 323.36 251.26 318.42 251.96C309.82 253.17 299.44 253.45 294.1 247.46C291.8 244.89 290.78 241.47 287.96 239.32C281.38 234.33 270.08 239.44 262.83 235.22C256.51 231.53 256.92 222.98 251.64 218.23C246.37 213.49 237.22 214.1 230.06 216.47C228.85 217.03 227.49 217.18 226.19 216.91C223.92 216.11 224.08 213.3 224.64 211.22C227.36 201.18 230.14 191.04 235.45 181.8C237.37 178.44 239.65 175.19 240.89 171.57C243.06 165.24 241.95 158.08 244.8 152.08C241.74 154.08 238.8 156.26 236.92 159.07C232.66 165.42 234.31 173.49 231.92 180.54C230.68 184.15 228.4 187.4 226.47 190.77C221.17 200 218.39 210.14 215.66 220.18C215.11 222.26 214.95 225.07 217.21 225.87C218.52 226.15 219.88 225.99 221.09 225.43C228.25 223.07 237.35 222.39 242.67 227.19C247.99 232 247.54 240.52 253.86 244.18C261.1 248.4 272.41 243.3 278.99 248.28C281.8 250.42 282.82 253.85 285.13 256.43C290.51 262.42 300.85 262.13 309.45 260.92C314.39 260.22 320.44 259.75 323.44 263.22C324.88 264.86 325.29 267.11 326.95 268.59C329.95 271.26 335.44 269.9 338.36 267.16C340.24 265.2 341.85 263 343.14 260.62C340.54 261.41 337.77 261.29 335.93 259.62C334.26 258.14 333.85 255.9 332.41 254.26Z" id="b16d3htxJK"></path><path d="M352.34 251.22C356.18 248.48 360.24 245.93 363.11 242.44C363.86 241.54 364.52 240.57 365.11 239.56C361.12 242.42 356.97 245.05 354.13 248.63C353.49 249.46 352.89 250.33 352.34 251.22Z" id="b1h8z0ZkQu"></path></defs><g><g><g><use xlink:href="#b1GAbTUbgY" opacity="1" fill="#3f3d56" fill-opacity="1"></use><g><use xlink:href="#b1GAbTUbgY" opacity="1" fill-opacity="0" stroke="#000000" stroke-width="1" stroke-opacity="0"></use></g></g><g><use xlink:href="#ahwVrOtTt" opacity="1" fill="#6c63ff" fill-opacity="1"></use><g><use xlink:href="#ahwVrOtTt" opacity="1" fill-opacity="0" stroke="#000000" stroke-width="1" stroke-opacity="0"></use></g></g><g><use xlink:href="#b110Gwfr8R" opacity="1" fill="#3f3d56" fill-opacity="1"></use><g><use xlink:href="#b110Gwfr8R" opacity="1" fill-opacity="0" stroke="#000000" stroke-width="1" stroke-opacity="0"></use></g></g><g><use xlink:href="#a541WkK9My" opacity="1" fill="#35323e" fill-opacity="1"></use><g><use xlink:href="#a541WkK9My" opacity="1" fill-opacity="0" stroke="#000000" stroke-width="1" stroke-opacity="0"></use></g></g><g><use xlink:href="#a6YqZ4LfFZ" opacity="1" fill="#6c63ff" fill-opacity="1"></use><g><use xlink:href="#a6YqZ4LfFZ" opacity="1" fill-opacity="0" stroke="#000000" stroke-width="1" stroke-opacity="0"></use></g></g><g><use xlink:href="#fDlMNYQN5" opacity="1" fill="#3f3d56" fill-opacity="1"></use><g><use xlink:href="#fDlMNYQN5" opacity="1" fill-opacity="0" stroke="#000000" stroke-width="1" stroke-opacity="0"></use></g></g><g><use xlink:href="#c7ITqBHGw" opacity="1" fill="#504f60" fill-opacity="1"></use><g><use xlink:href="#c7ITqBHGw" opacity="1" fill-opacity="0" stroke="#000000" stroke-width="1" stroke-opacity="0"></use></g></g><g><use xlink:href="#lbP1Y9dP" opacity="1" fill="#3f3d56" fill-opacity="1"></use><g><use xlink:href="#lbP1Y9dP" opacity="1" fill-opacity="0" stroke="#000000" stroke-width="1" stroke-opacity="0"></use></g></g><g><use xlink:href="#dcSdfldU2" opacity="1" fill="#3f3d56" fill-opacity="1"></use><g><use xlink:href="#dcSdfldU2" opacity="1" fill-opacity="0" stroke="#000000" stroke-width="1" stroke-opacity="0"></use></g></g><g><use xlink:href="#a7BX9BzrJ2" opacity="1" fill="#a1616a" fill-opacity="1"></use><g><use xlink:href="#a7BX9BzrJ2" opacity="1" fill-opacity="0" stroke="#000000" stroke-width="1" stroke-opacity="0"></use></g></g><g><use xlink:href="#eohCvVuus" opacity="1" fill="#000000" fill-opacity="1"></use><g><use xlink:href="#eohCvVuus" opacity="1" fill-opacity="0" stroke="#000000" stroke-width="1" stroke-opacity="0"></use></g></g><g><use xlink:href="#a79d0jC6pD" opacity="1" fill="#a1616a" fill-opacity="1"></use><g><use xlink:href="#a79d0jC6pD" opacity="1" fill-opacity="0" stroke="#000000" stroke-width="1" stroke-opacity="0"></use></g></g><g><use xlink:href="#aocm7kjLN" opacity="1" fill="#464353" fill-opacity="1"></use><g><use xlink:href="#aocm7kjLN" opacity="1" fill-opacity="0" stroke="#000000" stroke-width="1" stroke-opacity="0"></use></g></g><g><use xlink:href="#ayASNgnR5" opacity="1" fill="#a1616a" fill-opacity="1"></use><g><use xlink:href="#ayASNgnR5" opacity="1" fill-opacity="0" stroke="#000000" stroke-width="1" stroke-opacity="0"></use></g></g><g><use xlink:href="#aj2iIzt4y" opacity="1" fill="#3f3d56" fill-opacity="1"></use><g><use xlink:href="#aj2iIzt4y" opacity="1" fill-opacity="0" stroke="#000000" stroke-width="1" stroke-opacity="0"></use></g></g><g><use xlink:href="#deKMBj92r" opacity="1" fill="#000000" fill-opacity="1"></use><g><use xlink:href="#deKMBj92r" opacity="1" fill-opacity="0" stroke="#000000" stroke-width="1" stroke-opacity="0"></use></g></g><g><use xlink:href="#a6Nd8pnpLQ" opacity="1" fill="#a1616a" fill-opacity="1"></use><g><use xlink:href="#a6Nd8pnpLQ" opacity="1" fill-opacity="0" stroke="#000000" stroke-width="1" stroke-opacity="0"></use></g></g><g><use xlink:href="#b2gWnYoLJm" opacity="1" fill="#ffffff" fill-opacity="1"></use><g><use xlink:href="#b2gWnYoLJm" opacity="1" fill-opacity="0" stroke="#000000" stroke-width="1" stroke-opacity="0"></use></g></g><g><use xlink:href="#ac2oBKzKU" opacity="1" fill="#6c63ff" fill-opacity="1"></use><g><use xlink:href="#ac2oBKzKU" opacity="1" fill-opacity="0" stroke="#000000" stroke-width="1" stroke-opacity="0"></use></g></g><g><use xlink:href="#b58mCodADh" opacity="1" fill="#6c63ff" fill-opacity="1"></use><g><use xlink:href="#b58mCodADh" opacity="1" fill-opacity="0" stroke="#000000" stroke-width="1" stroke-opacity="0"></use></g></g><g><use xlink:href="#eZ8fTPhPo" opacity="1" fill="#a1616a" fill-opacity="1"></use><g><use xlink:href="#eZ8fTPhPo" opacity="1" fill-opacity="0" stroke="#000000" stroke-width="1" stroke-opacity="0"></use></g></g><g><use xlink:href="#i2woEVu9r" opacity="1" fill="#000000" fill-opacity="1"></use><g><use xlink:href="#i2woEVu9r" opacity="1" fill-opacity="0" stroke="#000000" stroke-width="1" stroke-opacity="0"></use></g></g><g><use xlink:href="#b3OhOkQuSz" opacity="1" fill="#a1616a" fill-opacity="1"></use><g><use xlink:href="#b3OhOkQuSz" opacity="1" fill-opacity="0" stroke="#000000" stroke-width="1" stroke-opacity="0"></use></g></g><g><use xlink:href="#b16d3htxJK" opacity="1" fill="#000000" fill-opacity="1"></use><g><use xlink:href="#b16d3htxJK" opacity="1" fill-opacity="0" stroke="#000000" stroke-width="1" stroke-opacity="0"></use></g></g><g><use xlink:href="#b1h8z0ZkQu" opacity="1" fill="#000000" fill-opacity="1"></use><g><use xlink:href="#b1h8z0ZkQu" opacity="1" fill-opacity="0" stroke="#000000" stroke-width="1" stroke-opacity="0"></use></g></g></g></g></svg>